#!OML:ASF E:\id_vita\Project 1\Capture day 1\Session 1\Female.ASF
:FULLY-SPECIFIED
:DEGREES
899
root -3.38078 16.5428 0.736694 -231.922 87.6465 -246.288
lowerback -13.5547 -0.225701 -4.93109
upperback -3.9489 0.587971 -0.839146
thorax 3.39712 0.360673 2.00426
lowerneck 6.73575 -0.280294 -6.64676
upperneck -6.45794 -0.485366 6.90433
head -2.97959 -0.354383 3.19841
rclavicle -6.01479e-015 -5.1684e-015
rhumerus -34.4239 -23.8832 -80.497
rradius 20.2935
rwrist 18.5286
rhand -13.0259 8.02728
rfingers 7.12502
rthumb 13.0682 -21.5433
lclavicle -6.01479e-015 -5.1684e-015
lhumerus -58.4259 60.0869 37.1888
lradius 12.108
lwrist -77.2233
lhand -9.12417 24.86
lfingers 7.12502
lthumb 16.8269 54.1509
rfemur -23.9135 -5.95409 17.9923
rtibia 67.8763
rfoot 7.20282 -7.41972
rtoes -0.44519
lfemur -28.5929 -8.5997 -24.3748
ltibia 27.6657
lfoot -18.6066 -0.645569
ltoes 9.31553
900
root -3.24568 16.5573 0.707382 -239.909 88.1437 -254.537
lowerback -13.7513 -0.0235737 -4.49156
upperback -4.01538 0.803415 -0.75626
thorax 3.42484 0.469719 1.88006
lowerneck 6.62876 -0.401549 -6.62781
upperneck -5.86204 -0.678393 6.70931
head -3.0759 -0.424335 3.48265
rclavicle -8.72323e-015 -2.78299e-015
rhumerus -34.439 -24.0943 -80.1697
rradius 20.2157
rwrist 18.0409
rhand -13.1821 7.36764
rfingers 7.12502
rthumb 12.9177 -22.2125
lclavicle -8.72323e-015 -2.78299e-015
lhumerus -50.214 57.4539 46.4118
lradius 12.3895
lwrist -72.5142
lhand -9.69857 24.9857
lfingers 7.12502
lthumb 16.2739 54.3228
rfemur -25.8478 -5.38111 18.5276
rtibia 68.3928
rfoot 5.67722 -8.86033
rtoes -0.462582
lfemur -28.2389 -8.22473 -24.1697
ltibia 27.5409
lfoot -18.9566 -0.476291
ltoes 9.76506
901
root -3.0912 16.5744 0.680654 -240.308 88.2756 -254.467
lowerback -13.643 -0.0149842 -4.33417
upperback -3.74359 0.776298 -0.679688
thorax 3.65456 0.440871 1.86767
lowerneck 6.64793 -0.449489 -6.67434
upperneck -5.62267 -0.741816 6.92655
head -2.99445 -0.463519 3.56632
rclavicle -5.82066e-015 1.59028e-015
rhumerus -34.5036 -23.8957 -80.0688
rradius 20.4635
rwrist 17.1972
rhand -13.3339 6.99872
rfingers 7.12502
rthumb 12.7713 -22.5907
lclavicle -5.82066e-015 1.59028e-015
lhumerus -42.8851 53.7781 54.8021
lradius 12.8211
lwrist -66.9745
lhand -10.1749 25.3765
lfingers 7.12502
lthumb 15.8152 54.7505
rfemur -26.682 -5.18053 18.8461
rtibia 68.6016
rfoot 4.59188 -9.99496
rtoes 1.4506
lfemur -26.9665 -7.95338 -24.3119
ltibia 27.4216
lfoot -19.6452 -0.356121
ltoes 9.12819
902
root -2.97073 16.5826 0.663784 -228.91 88.0961 -243.378
lowerback -13.904 -0.288204 -4.47718
upperback -3.72661 0.444942 -0.539498
thorax 3.83225 0.273056 2.04332
lowerneck 6.8241 -0.389517 -6.9574
upperneck -5.83259 -0.640177 7.62823
head -2.79229 -0.45369 3.47323
rclavicle 8.91114e-015 -1.49089e-014
rhumerus -34.5918 -23.5385 -79.9503
rradius 20.6943
rwrist 16.5615
rhand -13.8668 7.54762
rfingers 7.12502
rthumb 12.2575 -22.0732
lclavicle 8.91114e-015 -1.49089e-014
lhumerus -37.7471 50.44 60.8074
lradius 13.336
lwrist -62.3637
lhand -10.736 25.6825
lfingers 7.12502
lthumb 15.2748 55.0984
rfemur -28.5677 -5.22272 19.2055
rtibia 68.7347
rfoot 3.68093 -10.8975
rtoes 2.36414
lfemur -26.7963 -7.75588 -24.4485
ltibia 27.3762
lfoot -20.1847 -0.698935
ltoes 8.62917
903
root -2.82695 16.5871 0.636382 -235.664 88.1549 -250.254
lowerback -12.7316 -0.289847 -4.61165
upperback -4.65148 0.394502 -0.399007
thorax 2.22689 0.312943 2.24398
lowerneck 6.7904 -0.478981 -6.97035
upperneck -4.25078 -0.8558 7.20937
head -2.54971 -0.530836 3.70148
rclavicle -1.88845e-015 1.49089e-014
rhumerus -36.2991 -22.6538 -79.2127
rradius 21.0666
rwrist 15.7197
rhand -14.2686 7.51383
rfingers 7.12502
rthumb 11.8701 -22.1297
lclavicle -1.88845e-015 1.49089e-014
lhumerus -35.6414 46.0253 64.5542
lradius 14.1874
lwrist -57.7107
lhand -11.2129 25.6076
lfingers 7.12502
lthumb 14.8154 55.058
rfemur -30.1432 -4.73352 19.2888
rtibia 68.6082
rfoot 2.3218 -11.4698
rtoes 1.88894
lfemur -26.2964 -7.57293 -24.6558
ltibia 27.2993
lfoot -20.6322 -0.516283
ltoes 8.64813
904
root -2.69386 16.5883 0.609309 -241.872 88.2452 -256.603
lowerback -13.8869 -0.300863 -4.39085
upperback -3.95833 0.41396 -0.458095
thorax 3.58143 0.27117 2.07373
lowerneck 6.31358 -0.633553 -6.68073
upperneck -4.31845 -1.01332 7.08932
head -2.46778 -0.602855 3.60023
rclavicle -2.75503e-015 -9.34288e-015
rhumerus -35.2058 -22.6925 -79.6638
rradius 21.0836
rwrist 15.3916
rhand -14.2827 6.98982
rfingers 7.12502
rthumb 11.8565 -22.6545
lclavicle -2.75503e-015 -9.34288e-015
lhumerus -31.3516 43.7319 68.7936
lradius 14.8135
lwrist -54.3192
lhand -11.6612 25.7037
lfingers 7.12502
lthumb 14.3835 55.1853
rfemur -31.7566 -4.21389 19.4367
rtibia 68.3345
rfoot 1.06995 -11.673
rtoes 3.4061
lfemur -25.9554 -7.47684 -24.7511
ltibia 27.3598
lfoot -21.0671 -0.375048
ltoes 9.15306
905
root -2.55546 16.5917 0.591238 -233.035 88.1512 -247.562
lowerback -12.0833 -0.39995 -4.72174
upperback -4.97139 0.218031 -0.192966
thorax 1.55132 0.251802 2.4903
lowerneck 6.69068 -0.739575 -6.88961
upperneck -3.10373 -1.23942 7.143
head -2.11463 -0.722087 3.65
rclavicle -5.77252e-015 1.68967e-014
rhumerus -37.2065 -21.6439 -78.7462
rradius 21.6123
rwrist 14.4962
rhand -14.3556 7.00862
rfingers 7.12502
rthumb 11.7862 -22.6397
lclavicle -5.77252e-015 1.68967e-014
lhumerus -30.8298 39.8917 71.0339
lradius 15.6887
lwrist -50.4952
lhand -12.1558 25.992
lfingers 7.12502
lthumb 13.9069 55.507
rfemur -32.7704 -4.04012 19.6802
rtibia 67.7971
rfoot -0.340028 -11.9885
rtoes 2.88164
lfemur -25.2562 -7.47472 -24.8343
ltibia 27.5219
lfoot -21.6119 -0.694505
ltoes 9.90778
